<?xml version="1.0" standalone="no"?>
<!DOCTYPE svg PUBLIC "-//W3C//DTD SVG 20010904//EN"
 "http://www.w3.org/TR/2001/REC-SVG-20010904/DTD/svg10.dtd">
<svg version="1.0" xmlns="http://www.w3.org/2000/svg"
 width="240.000000pt" height="240.000000pt" viewBox="0 0 240.000000 240.000000"
 preserveAspectRatio="xMidYMid meet">
<metadata>
Created by potrace 1.14, written by Peter Selinger 2001-2017
</metadata>
<g transform="translate(0.000000,240.000000) scale(0.100000,-0.100000)"
fill="#000000" stroke="none">
<path d="M0 2185 l0 -215 218 -3 217 -2 -217 -3 -218 -2 0 -362 0 -363 345 3
c246 3 345 1 345 -7 0 -8 -101 -11 -345 -11 l-345 0 0 -195 0 -195 201 0 202
0 -26 -20 c-23 -18 -40 -20 -201 -20 l-176 0 0 -223 0 -224 33 0 c17 -1 53 6
78 14 43 15 50 15 89 -1 23 -9 69 -19 103 -23 36 -3 65 -12 70 -19 5 -8 25
-14 47 -14 l40 0 -31 -43 -31 -44 -154 -6 c-84 -4 -174 -4 -199 0 l-45 6 0
-107 0 -106 1029 0 c814 0 1030 3 1034 13 4 9 6 9 6 0 1 -10 27 -13 97 -13
110 0 106 -7 55 105 -27 58 -27 64 -22 190 l6 130 27 -35 c48 -64 61 -127 55
-266 l-5 -124 59 0 59 0 0 105 0 105 -44 0 c-25 0 -47 3 -49 8 -3 4 -8 37 -12
74 l-7 68 56 0 56 0 0 215 0 215 -159 0 c-147 0 -188 7 -167 27 3 3 77 8 166
11 l160 5 0 198 0 199 -155 -7 c-114 -4 -155 -3 -155 5 0 9 45 12 155 12 l155
0 0 580 0 580 -1200 0 -1200 0 0 -215z m623 -222 c-29 -2 -78 -2 -110 0 -32 2
-8 3 52 3 61 0 87 -1 58 -3z m1015 0 c-27 -2 -69 -2 -95 0 -27 2 -5 3 47 3 52
0 74 -1 48 -3z m180 0 c-21 -2 -55 -2 -75 0 -21 2 -4 4 37 4 41 0 58 -2 38 -4z
m-1558 -118 c0 -8 -4 -15 -9 -15 -13 0 -22 16 -14 24 11 11 23 6 23 -9z m1610
-84 c0 -11 45 -28 96 -36 31 -5 44 -13 52 -31 7 -14 29 -31 52 -40 32 -13 38
-19 29 -30 -8 -10 -5 -24 14 -58 24 -43 24 -46 7 -51 -19 -6 -60 25 -60 45 0
6 -8 11 -17 12 -10 1 -25 2 -33 3 -8 1 -24 5 -36 8 -12 5 -33 1 -50 -8 -16 -8
-39 -15 -51 -15 -12 0 -25 -5 -29 -11 -4 -7 -21 -9 -43 -5 -25 4 -31 2 -21 -4
8 -5 23 -10 33 -10 9 0 17 -4 17 -9 0 -5 -6 -8 -12 -8 -34 4 -108 -15 -108
-28 0 -7 -8 -16 -17 -20 -15 -5 -16 -4 -5 6 18 19 15 34 -5 18 -14 -12 -16
-12 -9 0 6 9 5 12 -5 9 -8 -3 -13 -11 -11 -18 2 -8 -3 -10 -14 -6 -12 4 -15 2
-10 -9 3 -9 0 -15 -10 -15 -9 0 -14 -7 -12 -18 2 -11 1 -19 -2 -19 -3 0 -15
-5 -28 -12 -13 -7 -36 -13 -53 -13 -21 -1 -36 -11 -54 -35 -15 -18 -31 -33
-38 -32 -8 0 -7 3 2 6 10 4 11 7 1 13 -16 10 -42 1 -34 -11 3 -5 -4 -9 -15 -9
-11 0 -23 -4 -26 -10 -3 -5 -15 -10 -27 -10 -11 0 -39 -19 -62 -42 -22 -23
-47 -42 -55 -42 -19 -1 -100 -116 -100 -143 -1 -14 -6 -21 -14 -17 -8 3 -24
-18 -42 -53 -17 -32 -33 -59 -37 -61 -5 -2 -8 -10 -8 -18 0 -8 -4 -14 -9 -14
-5 0 -16 -2 -23 -5 -8 -3 -25 4 -38 15 -22 19 -24 28 -24 118 0 95 0 98 34
143 19 26 46 52 59 58 34 17 111 82 112 95 0 6 32 36 71 66 38 30 78 62 87 71
9 8 31 21 49 28 17 8 32 17 32 21 0 4 14 13 31 20 17 7 36 18 42 25 7 6 40 28
75 49 34 20 62 40 62 42 0 3 -4 3 -9 0 -5 -3 -12 1 -15 10 -3 8 -10 13 -15 9
-5 -3 -12 -1 -15 3 -3 5 -17 7 -31 4 -28 -5 -35 14 -7 22 24 7 133 28 157 30
11 1 37 7 57 15 21 7 41 10 46 8 4 -3 23 -2 42 3 48 11 80 12 80 1z m-572 -33
c15 -15 16 -72 2 -63 -6 3 -7 17 -4 31 5 18 2 24 -10 24 -9 0 -16 5 -16 10 0
14 13 13 28 -2z m-308 -53 c10 -12 10 -15 -1 -15 -28 0 -59 13 -53 21 8 14 40
10 54 -6z m50 -52 c13 -13 13 -15 -5 -10 -11 3 -37 9 -57 13 -21 3 -35 11 -32
16 9 14 76 0 94 -19z m217 -23 c4 0 15 7 25 17 16 14 18 14 18 0 0 -29 -12
-47 -31 -47 -14 0 -19 -7 -19 -26 0 -18 -19 -47 -61 -92 -33 -37 -68 -79 -76
-93 -18 -30 -43 -44 -98 -55 -34 -6 -40 -3 -83 39 -26 25 -57 48 -70 52 -22 6
-23 10 -17 58 9 68 20 88 29 53 10 -42 23 -30 29 29 3 29 11 62 17 72 11 17
11 17 6 0 -5 -14 -1 -18 14 -15 14 2 25 -5 33 -22 18 -35 43 -33 40 3 -2 27 0
28 25 22 15 -4 27 -7 28 -8 1 -1 6 -11 12 -22 l11 -20 2 20 c1 11 0 29 -1 40
-2 19 0 19 24 -4 14 -13 28 -35 31 -50 10 -45 42 -35 56 19 6 25 14 39 16 33
8 -23 23 -14 24 15 2 23 2 24 6 5 2 -13 7 -23 10 -23z m-1129 -32 c2 -5 15
-22 29 -38 13 -16 22 -33 19 -38 -3 -5 -27 -9 -54 -11 -46 -2 -50 0 -62 28 -7
17 -9 42 -6 56 6 22 10 24 39 18 17 -3 34 -10 35 -15z m463 -19 c6 -8 8 -30 6
-50 -7 -55 17 -89 61 -89 16 0 26 7 29 20 3 11 10 20 15 20 6 0 4 8 -3 17 -12
15 -12 16 6 9 16 -6 18 -5 8 5 -18 18 -16 30 2 23 10 -4 15 0 15 13 0 11 3 23
7 26 9 9 53 -33 53 -50 0 -10 7 -12 21 -8 21 7 22 5 17 -44 -5 -51 -4 -52 24
-58 28 -5 50 -23 29 -23 -14 0 -38 -47 -46 -92 -5 -24 -15 -40 -32 -49 l-25
-14 23 -6 c17 -4 27 0 35 14 11 20 15 17 28 -17 5 -14 2 -17 -9 -12 -11 4 -14
2 -8 -7 4 -6 8 -19 8 -27 0 -8 12 -21 28 -28 22 -11 27 -19 27 -50 -1 -20 -7
-48 -14 -61 -16 -30 -10 -57 21 -95 30 -36 63 -100 63 -121 0 -10 7 -16 18
-14 39 4 52 -2 67 -31 8 -16 15 -39 15 -52 0 -13 7 -36 15 -52 18 -35 19 -54
3 -70 -16 -14 -56 -18 -63 -5 -4 5 -11 9 -18 9 -6 0 2 -12 18 -27 34 -32 36
-74 5 -96 -11 -8 -29 -35 -41 -61 -11 -26 -26 -45 -32 -43 -7 3 -25 -5 -42
-17 -17 -13 -60 -27 -102 -34 -40 -6 -78 -13 -84 -14 -7 -2 -24 22 -40 52 -32
63 -35 74 -14 67 8 -4 17 -2 21 4 3 5 14 7 23 4 11 -3 28 3 42 15 l24 21 -23
-11 c-22 -11 -28 -7 -70 37 -26 27 -39 40 -29 28 22 -27 22 -35 -1 -35 -15 0
-102 79 -102 93 0 3 -22 29 -50 56 -28 28 -50 48 -50 46 0 -2 11 -21 25 -41
26 -38 31 -54 17 -54 -5 0 -21 22 -36 49 l-27 50 22 63 c31 93 55 128 88 128
24 0 30 7 49 53 12 29 21 70 21 92 -1 22 -4 31 -6 20 -7 -24 -47 -63 -79 -75
-25 -10 -54 -4 -54 11 0 5 -11 9 -25 9 -22 0 -25 4 -25 35 0 24 -6 37 -20 45
-12 6 -17 16 -13 26 4 10 -2 17 -16 21 -11 3 -21 12 -21 19 0 8 -6 14 -12 14
-8 0 -7 4 3 10 11 6 15 18 12 34 -5 22 -1 24 44 28 90 8 197 2 236 -15 30 -13
43 -14 62 -5 18 8 22 15 15 23 -6 7 -8 19 -4 28 8 22 -3 25 -101 28 -108 3
-115 5 -110 31 3 12 -2 26 -9 32 -21 16 -56 87 -56 113 0 13 -9 28 -20 35 -11
7 -20 20 -20 28 1 22 25 50 43 50 9 0 19 5 23 11 9 16 104 5 115 -12z m1376
15 c-3 -3 -12 -4 -19 -1 -8 3 -5 6 6 6 11 1 17 -2 13 -5z m-190 -70 c-3 -3
-12 -4 -19 -1 -8 3 -5 6 6 6 11 1 17 -2 13 -5z m-46 -27 c-10 -9 -11 -8 -5 6
3 10 9 15 12 12 3 -3 0 -11 -7 -18z m-1051 -267 c0 -5 -4 -10 -9 -10 -6 0 -13
5 -16 10 -3 6 1 10 9 10 9 0 16 -4 16 -10z m-396 -190 c-11 -11 -44 -3 -44 10
0 12 33 18 45 8 5 -5 5 -12 -1 -18z m1793 -361 c12 -57 22 -117 21 -134 0 -18
-5 -6 -13 30 -7 34 -22 91 -34 129 -24 79 -25 89 -8 84 6 -3 22 -52 34 -109z
m-1477 -145 c0 -8 -7 -14 -15 -14 -8 0 -15 -4 -15 -10 0 -5 7 -7 15 -4 9 4 18
-2 24 -17 6 -14 10 -18 10 -8 1 8 -4 20 -11 27 -9 9 -9 12 3 12 14 0 89 -169
89 -203 0 -10 -12 -22 -27 -28 -25 -9 -31 -7 -56 23 -43 50 -75 108 -86 156
-8 37 -7 43 6 38 11 -5 13 -1 8 15 -5 15 -4 19 4 15 6 -4 11 -3 11 1 0 5 9 9
20 10 11 1 20 -4 20 -13z m1507 -161 c-2 -27 -3 -5 -3 47 0 52 1 74 3 48 2
-27 2 -69 0 -95z m-1505 -70 c6 -8 4 -11 -8 -9 -20 3 -46 35 -38 47 3 5 0 9
-6 9 -6 0 -8 5 -5 10 4 6 16 -1 28 -17 11 -15 25 -33 29 -40z m1495 -50 c-3
-10 -5 -4 -5 12 0 17 2 24 5 18 2 -7 2 -21 0 -30z m-1677 -22 c-5 -11 -15 -23
-22 -27 -7 -5 -8 -2 -3 7 21 37 44 55 25 20z m1667 -73 c-3 -7 -5 -2 -5 12 0
14 2 19 5 13 2 -7 2 -19 0 -25z m-10 -70 c-3 -7 -5 -2 -5 12 0 14 2 19 5 13 2
-7 2 -19 0 -25z"/>
<path d="M1725 1520 c-3 -6 1 -7 9 -4 18 7 21 14 7 14 -6 0 -13 -4 -16 -10z"/>
<path d="M1576 1443 c-14 -4 -15 -7 -6 -13 7 -5 -1 -10 -24 -14 -20 -4 -34
-11 -31 -16 3 -5 19 -4 38 2 17 5 37 10 43 11 6 0 9 9 6 19 -2 10 -5 17 -6 17
0 -1 -10 -4 -20 -6z"/>
<path d="M1464 1375 c-9 -14 -14 -28 -11 -31 3 -3 12 9 20 25 19 38 14 40 -9
6z"/>
<path d="M1035 1365 c-25 -12 -26 -14 -5 -9 28 7 60 23 45 23 -5 0 -23 -6 -40
-14z"/>
<path d="M571 1180 c0 -14 11 -47 25 -75 28 -54 26 -41 -5 45 -14 37 -20 47
-20 30z"/>
<path d="M757 1136 c3 -16 10 -23 19 -19 10 4 11 10 3 24 -14 27 -27 24 -22
-5z"/>
<path d="M740 730 c8 -5 22 -9 30 -9 10 0 8 3 -5 9 -27 12 -43 12 -25 0z"/>
<path d="M865 640 c10 -11 20 -20 23 -20 3 0 -3 9 -13 20 -10 11 -20 20 -23
20 -3 0 3 -9 13 -20z"/>
<path d="M830 560 c11 -30 25 -58 31 -64 9 -8 10 -8 5 1 -3 6 -2 14 4 18 5 3
10 13 10 21 0 8 -4 12 -10 9 -5 -3 -10 0 -10 8 0 7 -11 24 -25 37 l-24 23 19
-53z"/>
<path d="M748 531 c4 -17 11 -31 17 -31 5 1 12 -5 15 -14 3 -8 10 -12 17 -8 7
5 0 20 -22 46 l-33 40 6 -33z"/>
<path d="M1030 515 c0 -8 2 -15 4 -15 2 0 6 7 10 15 3 8 1 15 -4 15 -6 0 -10
-7 -10 -15z"/>
<path d="M570 446 c0 -8 4 -17 9 -20 5 -4 7 3 4 14 -6 23 -13 26 -13 6z"/>
<path d="M570 290 c6 -11 13 -20 16 -20 2 0 0 9 -6 20 -6 11 -13 20 -16 20 -2
0 0 -9 6 -20z"/>
</g>
</svg>
